<svg xmlns="http://www.w3.org/2000/svg" >
  <defs>
    <symbol id="brand" viewBox="0 0 512 512" style="enable-background:new 0 0 512 512;" xml:space="preserve">
<path style="fill:#EEBF00;" d="M313.517,191.143c1.16,4.613,1.776,9.442,1.776,14.415c0,32.539-26.378,58.917-58.917,58.917
	c-28.468,0-52.219-20.19-57.718-47.032L313.517,191.143z"/>
<g style="opacity:0.17;">
	<path style="fill:#50000F;" d="M315.293,203.966c0-4.973-0.616-9.803-1.776-14.415l-114.859,26.3
		c1.512,7.38,4.41,14.253,8.4,20.346l108.015-27.319C315.207,207.257,315.293,205.622,315.293,203.966z"/>
</g>
<rect x="193.69" y="302.009" style="fill:#FFEB99;" width="125.44" height="27.483"/>
<path style="fill:#4BCDB2;" d="M76.736,224.39l-39.464,20.163c-2.514,1.285-5.565-0.14-6.195-2.892L8.435,142.672
	c-0.63-2.752,1.5-5.362,4.322-5.298l44.305,1.003L76.736,224.39z"/>
<rect x="64.586" y="126.258" transform="matrix(0.9748 -0.223 0.223 0.9748 -35.1293 29.6571)" style="fill:#328777;" width="98.328" height="88.228"/>
<path style="fill:#4BCDB2;" d="M439.649,162.294l-242.105,55.375c-11.832,2.706-23.617-4.691-26.324-16.523l-19.088-83.455
	c-2.706-11.832,4.691-23.617,16.523-26.324L410.76,35.991L439.649,162.294z"/>
<path style="fill:#3EAC92;" d="M217.2,185.104c-11.832,2.706-23.617-4.691-26.324-16.523l-17.28-75.549l-4.966,1.136
	c-11.832,2.706-19.229,14.492-16.523,26.324l19.088,83.455c2.706,11.832,14.492,19.23,26.324,16.523l242.105-55.374l-6.708-29.33
	L217.2,185.104z"/>
<path style="fill:#4BCDB2;" d="M485.977,167.802l-42.828,9.796L407.26,20.687l42.828-9.796c11.512-2.633,22.979,4.565,25.611,16.076
	l26.355,115.223C504.687,153.702,497.489,165.168,485.977,167.802z"/>
<g>
	<polygon style="fill:#FFD422;" points="193.695,302.011 139.046,499.207 171.334,499.207 225.983,302.011 	"/>
	<polygon style="fill:#FFD422;" points="287.969,302.011 342.618,499.207 374.906,499.207 320.256,302.011 	"/>
</g>
<g>
	<rect x="241.22" y="250.209" style="fill:#EEBF00;" width="30.924" height="51.802"/>
	<rect x="241.22" y="329.489" style="fill:#EEBF00;" width="30.924" height="169.71"/>
</g>
<rect x="403.715" y="36.776" transform="matrix(0.9748 -0.223 0.223 0.9748 -12.2065 95.0143)" style="fill:#3EAC92;" width="21.766" height="129.558"/>
<polygon style="fill:#D3FDF9;" points="419.799,75.507 478.748,40.29 489.597,87.728 431.913,127.064 "/>
<g>
	<path style="fill:#50000F;" d="M511.266,141.705L484.911,26.483c-1.73-7.564-6.302-14.002-12.875-18.127
		c-6.571-4.126-14.359-5.445-21.92-3.714l-42.829,9.796c-1.982,0.453-3.704,1.676-4.785,3.398s-1.433,3.804-0.98,5.786l1.791,7.831
		L168.682,85.116c-12.884,2.947-21.883,13.926-22.931,26.443l-88.996,20.356L7.84,130.808c-2.387-0.07-4.621,0.987-6.114,2.818
		c-1.495,1.832-2.06,4.251-1.533,6.556l25.123,109.836c0.528,2.304,2.088,4.237,4.23,5.238c1.028,0.48,2.137,0.72,3.244,0.72
		c1.197,0,2.394-0.28,3.488-0.839l43.57-22.26l89.019-20.361c5.288,8.953,15.005,14.6,25.511,14.6c0.109,0,0.22-0.008,0.329-0.009
		c6.331,19.741,21.567,35.207,40.581,42.193v26.269h-7.4c-0.114-0.003-0.228-0.003-0.342,0h-32.112c-3.446,0-6.468,2.299-7.389,5.62
		l-54.649,197.196c-0.64,2.308-0.165,4.782,1.286,6.689c1.45,1.907,3.708,3.026,6.103,3.026h32.287c3.446,0,6.468-2.299,7.389-5.62
		l45.475-164.092h9.353v162.045c0,4.234,3.433,7.667,7.667,7.667h30.925c4.235,0,7.667-3.433,7.667-7.667V338.387h9.944
		l45.475,164.092c0.92,3.321,3.942,5.62,7.389,5.62h32.287c2.395,0,4.653-1.119,6.103-3.026s1.926-4.38,1.286-6.689l-54.65-197.195
		c-0.008-0.029-0.02-0.056-0.029-0.085c-0.047-0.163-0.101-0.32-0.158-0.477c-0.031-0.085-0.059-0.172-0.093-0.256
		c-0.057-0.143-0.123-0.281-0.188-0.419c-0.045-0.095-0.088-0.19-0.136-0.283c-0.061-0.116-0.129-0.227-0.195-0.339
		c-0.063-0.106-0.125-0.215-0.193-0.318c-0.062-0.094-0.13-0.183-0.196-0.274c-0.081-0.11-0.159-0.223-0.245-0.328
		c-0.07-0.085-0.143-0.165-0.216-0.246c-0.09-0.101-0.178-0.204-0.273-0.301c-0.086-0.088-0.178-0.169-0.269-0.253
		c-0.088-0.081-0.173-0.164-0.264-0.239c-0.113-0.096-0.234-0.184-0.353-0.273c-0.074-0.055-0.145-0.112-0.221-0.165
		c-0.142-0.098-0.291-0.188-0.44-0.277c-0.058-0.035-0.116-0.073-0.175-0.106c-0.161-0.09-0.326-0.171-0.494-0.249
		c-0.055-0.026-0.108-0.054-0.164-0.079c-0.163-0.072-0.329-0.133-0.497-0.193c-0.067-0.025-0.134-0.052-0.202-0.075
		c-0.149-0.049-0.303-0.089-0.456-0.129c-0.094-0.025-0.186-0.051-0.281-0.073c-0.13-0.029-0.262-0.049-0.394-0.072
		c-0.124-0.02-0.247-0.042-0.372-0.057c-0.111-0.013-0.225-0.019-0.338-0.028c-0.146-0.01-0.292-0.02-0.441-0.022
		c-0.036,0-0.071-0.005-0.106-0.005h-40.446v-26.471c25.185-9.502,43.151-33.845,43.151-62.314c0-2.876-0.189-5.744-0.555-8.584
		l111.478-25.498l1.791,7.83c0.813,3.552,3.972,5.959,7.468,5.959c0.566,0,1.141-0.063,1.716-0.194l42.829-9.796
		C505.038,172.929,514.836,157.32,511.266,141.705z M38.068,237.002l-20.732-90.641l34.055,0.771l17.011,74.372L38.068,237.002z
		 M83.153,216.39l-16.254-71.065l80.912-18.507l16.254,71.065L83.153,216.39z M167.238,492.764h-16.375l50.399-181.861h16.376
		L167.238,492.764z M266.212,492.764h-15.591V338.387h15.591V492.764z M230.184,323.052l3.367-12.149h9.404h30.925h9.994
		l3.367,12.149H230.184z M350.186,492.764l-50.4-181.861h16.376l50.399,181.861H350.186z M266.212,295.569h-15.591v-22.642
		c2.467,0.281,4.964,0.441,7.491,0.441c2.743,0,5.443-0.186,8.1-0.51V295.569z M309.363,206.784c0,28.259-22.99,51.249-51.25,51.249
		c-21.708,0-40.903-13.806-48.162-33.715l99.134-22.674C309.255,203.348,309.363,205.062,309.363,206.784z M197.571,211.419
		c-7.691,1.761-15.38-3.067-17.141-10.759l-9.544-41.729l-9.544-41.728c-0.852-3.726-0.202-7.561,1.83-10.798
		c2.032-3.238,5.203-5.49,8.929-6.342l234.631-53.665l25.469,111.355L197.571,211.419z M486.005,161.553l-35.355,8.086l-1.787-7.813
		c-0.001-0.005-0.002-0.011-0.003-0.016L419.971,35.506c0-0.001,0-0.002-0.001-0.003l-1.79-7.827l35.354-8.086
		c3.573-0.816,7.247-0.194,10.35,1.753s5.261,4.987,6.077,8.559l26.355,115.222C498.002,152.496,493.377,159.866,486.005,161.553z"
		/>
	<path style="fill:#50000F;" d="M391.769,73.059c-0.909-4.134-4.994-6.753-9.134-5.842l-153.787,33.795
		c-4.135,0.909-6.751,4.998-5.842,9.134c0.787,3.581,3.959,6.023,7.481,6.023c0.545,0,1.099-0.058,1.653-0.18l153.787-33.796
		C390.062,81.285,392.678,77.195,391.769,73.059z"/>
</g>
<g>
</g>
<g>
</g>
<g>
</g>
<g>
</g>
<g>
</g>
<g>
</g>
<g>
</g>
<g>
</g>
<g>
</g>
<g>
</g>
<g>
</g>
<g>
</g>
<g>
</g>
<g>
</g>
<g>
</g>
    </symbol>
  </defs>
</svg>

